<?xml version="1.0"?>
<svg xmlns="http://www.w3.org/2000/svg" id="Capa_1" enable-background="new 0 0 512.002 512.002" height="512px" viewBox="0 0 512.002 512.002" width="512px"><g><g><path d="m93.501 255c-20.678 0-37.5 16.822-37.5 37.5s16.822 37.5 37.5 37.5 37.5-16.822 37.5-37.5-16.822-37.5-37.5-37.5zm0 60c-12.406 0-22.5-10.093-22.5-22.5s10.094-22.5 22.5-22.5 22.5 10.093 22.5 22.5-10.094 22.5-22.5 22.5z" data-original="#000000" class="active-path" data-old_color="#000000" fill="#FF6600"/><path d="m103.501 345h-20c-12.391 0-22.891 8.24-26.318 19.528-20.449-3.061-36.182-20.74-36.182-42.028 0-4.142-3.357-7.5-7.5-7.5s-7.5 3.358-7.5 7.5c0 29.162 21.827 53.306 50 56.995v125.005c0 4.142 3.357 7.5 7.5 7.5s7.5-3.358 7.5-7.5v-57.02c6.272 4.719 14.064 7.52 22.5 7.52s16.228-2.801 22.5-7.52v57.02c0 4.142 3.357 7.5 7.5 7.5s7.5-3.358 7.5-7.5v-132c0-15.164-12.337-27.5-27.5-27.5zm-20 15h20c6.893 0 12.5 5.607 12.5 12.5v22.5h-45v-22.5c0-6.893 5.607-12.5 12.5-12.5zm10 80c-12.406 0-22.5-10.093-22.5-22.5v-7.5h45v7.5c0 12.407-10.094 22.5-22.5 22.5z" data-original="#000000" class="active-path" data-old_color="#000000" fill="#FF6600"/><path d="m311.001 97.5c0 28.949 23.552 52.5 52.5 52.5s52.5-23.551 52.5-52.5c0-15.581-6.83-29.591-17.644-39.214 8.148-3.386 13.894-11.426 13.894-20.786 0-10.136-6.736-18.727-15.967-21.533-2.805-9.231-11.397-15.967-21.533-15.967-3.987 0-7.861 1.065-11.25 3.027-3.388-1.962-7.262-3.027-11.25-3.027-10.136 0-18.728 6.736-21.533 15.967-9.23 2.806-15.967 11.397-15.967 21.533 0 9.36 5.746 17.4 13.894 20.786-10.814 9.623-17.644 23.633-17.644 39.214zm90 0c0 20.678-16.822 37.5-37.5 37.5s-37.5-16.822-37.5-37.5 16.822-37.5 37.5-37.5 37.5 16.822 37.5 37.5zm-63.75-52.5c-4.136 0-7.5-3.364-7.5-7.5s3.364-7.5 7.5-7.5c4.143 0 7.5-3.358 7.5-7.5 0-4.136 3.364-7.5 7.5-7.5 2.173 0 4.169.908 5.62 2.557 1.424 1.617 3.475 2.544 5.629 2.544 2.155 0 4.206-.926 5.63-2.543 1.452-1.649 3.448-2.558 5.621-2.558 4.136 0 7.5 3.364 7.5 7.5 0 4.142 3.357 7.5 7.5 7.5 4.136 0 7.5 3.364 7.5 7.5s-3.364 7.5-7.5 7.5z" data-original="#000000" class="active-path" data-old_color="#000000" fill="#FF6600"/><path d="m416.001 199.714c50.271-3.842 90-45.976 90-97.214 0-4.142-3.357-7.5-7.5-7.5s-7.5 3.358-7.5 7.5c0 43.344-33.605 78.961-76.125 82.229-3.362-11.39-13.91-19.729-26.375-19.729h-50c-15.163 0-27.5 12.336-27.5 27.5v67.259c-9.693 11.99-15 26.936-15 42.406 0 2.783.19 5.686.567 8.636l5.494 42.657c.481 3.741 3.667 6.542 7.438 6.542h16.5v129.094l-24.872 8.291c-3.929 1.31-6.053 5.557-4.743 9.487 1.048 3.143 3.974 5.13 7.114 5.13.786 0 1.586-.125 2.373-.387l30-10c3.063-1.021 5.128-3.887 5.128-7.115v-134.5h45v134.5c0 3.228 2.065 6.094 5.128 7.115l30 10c.787.262 1.587.387 2.373.387 3.141 0 6.066-1.988 7.114-5.13 1.31-3.93-.814-8.177-4.743-9.487l-24.872-8.291v-129.094h16.5c3.771 0 6.957-2.801 7.438-6.542l5.495-42.662c.376-2.935.566-5.839.566-8.631 0-15.472-5.307-30.417-15-42.406v-60.045zm-77.5-19.714h50c6.893 0 12.5 5.607 12.5 12.5v5.555c-3.789-1.948-8.082-3.055-12.633-3.055-7.345 0-14.25 2.86-19.445 8.054l-5.489 5.49-5.491-5.491c-5.194-5.193-12.1-8.054-19.444-8.054-4.499 0-8.745 1.093-12.497 3.017v-5.516c-.001-6.893 5.606-12.5 12.499-12.5zm77.056 128.885-4.652 36.115h-94.809l-4.65-36.107c-.3-2.347-.445-4.547-.445-6.728 0-11.685 3.905-22.98 11.039-32.165h82.923c7.133 9.183 11.038 20.478 11.038 32.165 0 2.157-.149 4.419-.444 6.72zm-14.556-53.885h-75v-32.5c0-6.893 5.606-12.5 12.497-12.5 3.339 0 6.478 1.3 8.838 3.661l10.768 10.768c1.375 1.374 3.255 2.162 5.2 2.196.043 0 .087.001.13.001 1.944 0 3.839-.754 5.238-2.107.03-.03.061-.059.091-.089l10.767-10.767c2.361-2.361 5.5-3.661 8.839-3.661 6.966 0 12.633 5.607 12.633 12.5v32.498z" data-original="#000000" class="active-path" data-old_color="#000000" fill="#FF6600"/><path d="m275.873 497.385-24.872-8.291v-159.863c1.323-1.349 2.574-2.778 3.753-4.275 5.52 3.201 11.92 5.043 18.747 5.043 4.143 0 7.5-3.358 7.5-7.5v-130c0-15.164-12.337-27.5-27.5-27.5h-80c-12.465 0-23.013 8.339-26.375 19.729-42.52-3.268-76.125-38.886-76.125-82.229 0-4.142-3.357-7.5-7.5-7.5s-7.5 3.358-7.5 7.5c0 51.239 39.729 93.372 90 97.214v122.787c0 4.142 3.357 7.5 7.5 7.5 6.827 0 13.227-1.843 18.747-5.043 1.179 1.497 2.43 2.925 3.753 4.275v159.863l-24.872 8.291c-3.93 1.31-6.053 5.557-4.743 9.487 1.048 3.143 3.974 5.13 7.114 5.13.786 0 1.586-.125 2.373-.387l30-10c3.063-1.021 5.128-3.887 5.128-7.115v-154.581c6.919 3.287 14.582 5.08 22.5 5.08 7.919 0 15.581-1.793 22.5-5.08v154.58c0 3.228 2.065 6.094 5.128 7.115l30 10c.787.262 1.587.387 2.373.387 3.141 0 6.066-1.988 7.114-5.13 1.31-3.93-.813-8.177-4.743-9.487zm-24.872-317.385h2.5c6.893 0 12.5 5.607 12.5 12.5v121.215c-8.73-3.095-15-11.437-15-21.215zm-15 0v105h-45v-105zm-75 12.5c0-6.893 5.607-12.5 12.5-12.5h2.5v112.5c0 9.778-6.27 18.12-15 21.215zm22.494 122.481c3.275-4.359 5.624-9.45 6.751-14.981h46.509c1.127 5.531 3.476 10.623 6.751 14.981-7.03 9.37-18.116 15.019-30.006 15.019-11.887 0-22.974-5.649-30.005-15.019z" data-original="#000000" class="active-path" data-old_color="#000000" fill="#FF6600"/><path d="m213.501 150c28.948 0 52.5-23.551 52.5-52.5s-23.552-52.5-52.5-52.5-52.5 23.551-52.5 52.5 23.552 52.5 52.5 52.5zm0-90c20.678 0 37.5 16.822 37.5 37.5s-16.822 37.5-37.5 37.5-37.5-16.822-37.5-37.5 16.822-37.5 37.5-37.5z" data-original="#000000" class="active-path" data-old_color="#000000" fill="#FF6600"/></g></g> </svg>
